<?xml version="1.0" encoding="UTF-8" standalone="no"?>
<!-- Created with Inkscape (http://www.inkscape.org/) -->

<svg
   xmlns:dc="http://purl.org/dc/elements/1.1/"
   xmlns:cc="http://creativecommons.org/ns#"
   xmlns:rdf="http://www.w3.org/1999/02/22-rdf-syntax-ns#"
   xmlns:svg="http://www.w3.org/2000/svg"
   xmlns="http://www.w3.org/2000/svg"
   xmlns:sodipodi="http://sodipodi.sourceforge.net/DTD/sodipodi-0.dtd"
   xmlns:inkscape="http://www.inkscape.org/namespaces/inkscape"
   width="30"
   height="40"
   viewBox="0 0 30 40.000001"
   id="svg2"
   version="1.1"
   inkscape:version="0.91 r13725"
   sodipodi:docname="double-click.svg">
  <defs
     id="defs4" />
  <sodipodi:namedview
     id="base"
     pagecolor="#282937"
     bordercolor="#666666"
     borderopacity="1.0"
     inkscape:pageopacity="0"
     inkscape:pageshadow="2"
     inkscape:zoom="5.6568543"
     inkscape:cx="15.79265"
     inkscape:cy="18.555691"
     inkscape:document-units="px"
     inkscape:current-layer="layer1"
     showgrid="false"
     units="px"
     inkscape:window-width="701"
     inkscape:window-height="713"
     inkscape:window-x="1979"
     inkscape:window-y="149"
     inkscape:window-maximized="0" />
  <metadata
     id="metadata7">
    <rdf:RDF>
      <cc:Work
         rdf:about="">
        <dc:format>image/svg+xml</dc:format>
        <dc:type
           rdf:resource="http://purl.org/dc/dcmitype/StillImage" />
        <dc:title></dc:title>
      </cc:Work>
    </rdf:RDF>
  </metadata>
  <g
     inkscape:label="Layer 1"
     inkscape:groupmode="layer"
     id="layer1"
     transform="translate(0,-1012.3622)">
    <path
       sodipodi:nodetypes="csssscc"
       inkscape:connector-curvature="0"
       id="path8549"
       d="m 3.1562868,1028.7737 0,13.2692 c 0,5.4795 4.411244,9.8907 9.8907432,9.8907 l 4.367178,0 c 5.479498,0 9.890743,-4.4112 9.890743,-9.8907 l 0,-13.2692 z"
       style="color:#000000;clip-rule:nonzero;display:inline;overflow:visible;visibility:visible;opacity:1;isolation:auto;mix-blend-mode:normal;color-interpolation:sRGB;color-interpolation-filters:linearRGB;solid-color:#000000;solid-opacity:1;fill:#c6ccd0;fill-opacity:1;fill-rule:evenodd;stroke:none;stroke-width:12;stroke-linecap:butt;stroke-linejoin:round;stroke-miterlimit:4;stroke-dasharray:none;stroke-dashoffset:0;stroke-opacity:1;color-rendering:auto;image-rendering:auto;shape-rendering:auto;text-rendering:auto;enable-background:accumulate" />
    <path
       sodipodi:nodetypes="sccsccs"
       inkscape:connector-curvature="0"
       id="path8551"
       d="m 14.943392,1015.6909 c -0.802034,0.013 -1.442606,0.6718 -1.431258,1.4739 l 0,7.4479 c -0.01141,0.8106 0.642546,1.4739 1.453272,1.4739 0.810726,0 1.464697,-0.6633 1.453272,-1.4739 l 0,-7.4479 c 0.01176,-0.8194 -0.655982,-1.4864 -1.475286,-1.4739 z"
       style="color:#000000;font-style:normal;font-variant:normal;font-weight:normal;font-stretch:normal;font-size:medium;line-height:normal;font-family:sans-serif;text-indent:0;text-align:start;text-decoration:none;text-decoration-line:none;text-decoration-style:solid;text-decoration-color:#000000;letter-spacing:normal;word-spacing:normal;text-transform:none;direction:ltr;block-progression:tb;writing-mode:lr-tb;baseline-shift:baseline;text-anchor:start;white-space:normal;clip-rule:nonzero;display:inline;overflow:visible;visibility:visible;opacity:1;isolation:auto;mix-blend-mode:normal;color-interpolation:sRGB;color-interpolation-filters:linearRGB;solid-color:#000000;solid-opacity:1;fill:#c6ccd0;fill-opacity:1;fill-rule:evenodd;stroke:none;stroke-width:12;stroke-linecap:butt;stroke-linejoin:round;stroke-miterlimit:4;stroke-dasharray:none;stroke-dashoffset:0;stroke-opacity:1;color-rendering:auto;image-rendering:auto;shape-rendering:auto;text-rendering:auto;enable-background:accumulate" />
    <path
       style="color:#000000;clip-rule:nonzero;display:inline;overflow:visible;visibility:visible;opacity:1;isolation:auto;mix-blend-mode:normal;color-interpolation:sRGB;color-interpolation-filters:linearRGB;solid-color:#000000;solid-opacity:1;fill:#c6ccd0;fill-opacity:1;fill-rule:evenodd;stroke:none;stroke-width:12;stroke-linecap:butt;stroke-linejoin:round;stroke-miterlimit:4;stroke-dasharray:none;stroke-dashoffset:0;stroke-opacity:1;color-rendering:auto;image-rendering:auto;shape-rendering:auto;text-rendering:auto;enable-background:accumulate"
       d="m 15.328714,1012.7166 0,2.1763 c 1.110877,0.1801 1.922325,1.1466 1.907408,2.2719 l 0,7.4479 c 0.0148,1.1253 -0.796531,2.0917 -1.907408,2.2718 l 0,1.1626 11.976237,0 0,-5.4397 c 0,-5.4795 -4.411245,-9.8908 -9.890743,-9.8908 z"
       id="path8553"
       inkscape:connector-curvature="0"
       sodipodi:nodetypes="cccccccssc" />
    <path
       style="color:#000000;clip-rule:nonzero;display:inline;overflow:visible;visibility:visible;opacity:1;isolation:auto;mix-blend-mode:normal;color-interpolation:sRGB;color-interpolation-filters:linearRGB;solid-color:#000000;solid-opacity:1;fill:#72a9f4;fill-opacity:1;fill-rule:evenodd;stroke:none;stroke-width:12;stroke-linecap:butt;stroke-linejoin:round;stroke-miterlimit:4;stroke-dasharray:none;stroke-dashoffset:0;stroke-opacity:1;color-rendering:auto;image-rendering:auto;shape-rendering:auto;text-rendering:auto;enable-background:accumulate"
       d="m 13.04703,1012.7166 c -5.4794992,0 -9.8907432,4.4113 -9.8907432,9.8908 l 0,5.4397 11.4458102,0 0,-1.1633 c -1.11061,-0.1801 -1.921944,-1.1462 -1.907406,-2.2711 l 0,-7.4479 c -0.01481,-1.1253 0.79653,-2.0918 1.907406,-2.2719 l 0,-2.1763 z"
       id="path8555"
       inkscape:connector-curvature="0"
       sodipodi:nodetypes="sscccccccs" />
    <g
       style="font-style:normal;font-variant:normal;font-weight:bold;font-stretch:normal;font-size:8.46353054px;line-height:125%;font-family:Roboto;-inkscape-font-specification:'Roboto Bold';letter-spacing:0px;word-spacing:0px;fill:#ffffff;fill-opacity:1;stroke:none;stroke-width:1px;stroke-linecap:butt;stroke-linejoin:miter;stroke-opacity:1"
       id="text4743"
       transform="translate(-5.1265242,0)">
      <path
         d="m 10.76596,1021.6958 0.75213,-1.3349 1.276968,0 -1.272835,2.1903 1.326559,2.2812 -1.281101,0 -0.797588,-1.4051 -0.7934563,1.4051 -1.2852334,0 1.3265597,-2.2812 -1.2687036,-2.1903 1.2811006,0 0.7356,1.3349 z"
         id="path4767"
         inkscape:connector-curvature="0" />
      <path
         d="m 17.45248,1024.8324 -4.124318,0 0,-0.8183 1.946446,-2.0745 q 0.400861,-0.4381 0.59096,-0.7645 0.194231,-0.3265 0.194231,-0.6199 0,-0.4009 -0.202496,-0.6282 -0.202497,-0.2314 -0.578562,-0.2314 -0.404993,0 -0.64055,0.281 -0.231425,0.2769 -0.231425,0.7315 l -1.198449,0 q 0,-0.5497 0.260352,-1.0042 0.264486,-0.4546 0.743865,-0.7108 0.47938,-0.2604 1.08687,-0.2604 0.929831,0 1.442271,0.4463 0.516573,0.4463 0.516573,1.2605 0,0.4463 -0.231424,0.9091 -0.231425,0.4629 -0.793456,1.0786 l -1.367885,1.4423 2.586997,0 0,0.9629 z"
         id="path4769"
         inkscape:connector-curvature="0" />
    </g>
  </g>
</svg>
