<?xml version="1.0" encoding="UTF-8" standalone="no"?>
<!-- Created with Inkscape (http://www.inkscape.org/) -->

<svg
   xmlns:dc="http://purl.org/dc/elements/1.1/"
   xmlns:cc="http://creativecommons.org/ns#"
   xmlns:rdf="http://www.w3.org/1999/02/22-rdf-syntax-ns#"
   xmlns:svg="http://www.w3.org/2000/svg"
   xmlns="http://www.w3.org/2000/svg"
   xmlns:sodipodi="http://sodipodi.sourceforge.net/DTD/sodipodi-0.dtd"
   xmlns:inkscape="http://www.inkscape.org/namespaces/inkscape"
   width="210mm"
   height="297mm"
   viewBox="0 0 744.09448819 1052.3622047"
   id="svg2"
   version="1.1"
   inkscape:version="0.91 r13725"
   sodipodi:docname="website_mockup.svg">
  <defs
     id="defs4" />
  <sodipodi:namedview
     id="base"
     pagecolor="#ffffff"
     bordercolor="#666666"
     borderopacity="1.0"
     inkscape:pageopacity="0.0"
     inkscape:pageshadow="2"
     inkscape:zoom="0.98994949"
     inkscape:cx="329.02262"
     inkscape:cy="765.42829"
     inkscape:document-units="px"
     inkscape:current-layer="layer7"
     showgrid="false"
     inkscape:window-width="1920"
     inkscape:window-height="997"
     inkscape:window-x="1920"
     inkscape:window-y="0"
     inkscape:window-maximized="1" />
  <metadata
     id="metadata7">
    <rdf:RDF>
      <cc:Work
         rdf:about="">
        <dc:format>image/svg+xml</dc:format>
        <dc:type
           rdf:resource="http://purl.org/dc/dcmitype/StillImage" />
        <dc:title></dc:title>
      </cc:Work>
    </rdf:RDF>
  </metadata>
  <g
     inkscape:label="Background"
     inkscape:groupmode="layer"
     id="layer1"
     style="display:inline">
    <rect
       style="color:#000000;clip-rule:nonzero;display:inline;overflow:visible;visibility:visible;opacity:1;isolation:auto;mix-blend-mode:normal;color-interpolation:sRGB;color-interpolation-filters:linearRGB;solid-color:#000000;solid-opacity:1;fill:#f18b00;fill-opacity:1;fill-rule:nonzero;stroke:none;stroke-width:10;stroke-linecap:butt;stroke-linejoin:miter;stroke-miterlimit:4;stroke-dasharray:none;stroke-dashoffset:0;stroke-opacity:1;color-rendering:auto;image-rendering:auto;shape-rendering:auto;text-rendering:auto;enable-background:accumulate;filter-blend-mode:normal;filter-gaussianBlur-deviation:0"
       id="rect4460"
       width="746.50275"
       height="75.761406"
       x="-1.0101526"
       y="800.83423" />
    <rect
       style="fill:#282937;fill-opacity:1;stroke:none;stroke-width:10;stroke-miterlimit:4;stroke-dasharray:none;stroke-opacity:1"
       id="rect4159"
       width="745.71429"
       height="128.64322"
       x="0"
       y="0.21934648" />
    <path
       style="fill:none;fill-rule:evenodd;stroke:#ffffff;stroke-width:5;stroke-linecap:butt;stroke-linejoin:miter;stroke-miterlimit:4;stroke-dasharray:none;stroke-opacity:1"
       d="M 343.57234,80.477378 C 322.95265,62.511119 314.15943,49.90156 312.87376,30.616416 c -1.28568,-19.285145 -23.78501,-16.070954 -21.8565,2.571352 1.92852,18.642306 24.42786,34.070422 61.71247,71.997872 37.28461,37.92746 50.14137,25.71353 64.28381,37.92746 14.14244,12.21392 0,25.07068 -14.14244,21.21366 -14.14243,-3.85704 -27.2941,-25.77284 -61.64111,-60.21245 -26.49897,-26.570425 -26.42733,-25.141759 -48.9986,-47.141435 -8.85495,-8.630703 -19.85644,-16.713888 -16.64224,1.928419 3.21419,18.642304 32.21317,21.35656 60.78384,52.427036 27.86134,30.29907 27.92782,33.07044 42.7131,43.35585 14.78528,10.28541 0.64284,28.28488 -14.14244,17.35663 -14.78528,-10.92825 -6.40145,-26.25423 -31.14202,-52.56993 -21.79849,-23.186315 -27.17131,-19.59057 -42.51677,-32.659663 -9.65816,-8.225459 -19.57085,1.696449 -10.08899,12.94612 12.09986,14.355763 26.49946,4.182093 50.24874,31.355993 19.25193,22.02802 7.14268,34.4991 -3.78558,26.78504 -10.92824,-7.71406 -9.48852,-36.20727 -26.35636,-29.57056 -11.33948,4.46156 0.64285,21.21366 -3.21419,56.56976 -3.85702,35.3561 -30.85623,51.42706 -31.49907,86.14031"
       id="path4138"
       inkscape:connector-curvature="0"
       sodipodi:nodetypes="cssssssssssssssssssc" />
    <path
       style="fill:#ffffff;fill-opacity:1;fill-rule:evenodd;stroke:none;stroke-width:3;stroke-linecap:butt;stroke-linejoin:miter;stroke-miterlimit:4;stroke-dasharray:none;stroke-opacity:1"
       d="m 350.52293,844.27078 53.8748,0 -26.10757,18.18275 z"
       id="path4462"
       inkscape:connector-curvature="0"
       sodipodi:nodetypes="cccc" />
  </g>
  <g
     inkscape:groupmode="layer"
     id="layer3"
     inkscape:label="Logo"
     style="display:none">
    <circle
       style="fill:#89bdd3;fill-opacity:1;stroke:none;stroke-width:10;stroke-miterlimit:4;stroke-dasharray:none;stroke-opacity:1"
       id="path4136"
       cx="392.14435"
       cy="53.406727"
       r="51.427052" />
    <path
       style="fill:none;fill-rule:evenodd;stroke:#000000;stroke-width:1px;stroke-linecap:butt;stroke-linejoin:miter;stroke-opacity:1"
       d="M 412.85714,6.6479168 C 364.64286,-13.530655 346.07143,24.50506 346.96429,32.00506 c 0.89285,7.5 27.14286,38.392857 59.82143,30.892857"
       id="path4190"
       inkscape:connector-curvature="0"
       sodipodi:nodetypes="csc" />
    <path
       style="fill:none;fill-rule:evenodd;stroke:#000000;stroke-width:1px;stroke-linecap:butt;stroke-linejoin:miter;stroke-opacity:1"
       d="M 437.67857,77.183631 C 456.07143,40.397917 437.85715,13.612203 413.21429,6.8264881 398.35427,2.7345982 369.10715,26.647916 381.25001,61.647916"
       id="path4192"
       inkscape:connector-curvature="0"
       sodipodi:nodetypes="csc" />
    <path
       style="fill:none;fill-rule:evenodd;stroke:#000000;stroke-width:1px;stroke-linecap:butt;stroke-linejoin:miter;stroke-opacity:1"
       d="m 365.87119,96.846294 c 33.21429,21.964286 66.27167,3.194486 71.98596,-19.662662 C 442.01941,60.53458 427.14286,39.68363 378.39286,42.897916"
       id="path4194"
       inkscape:connector-curvature="0"
       sodipodi:nodetypes="csc" />
    <path
       style="fill:none;fill-rule:evenodd;stroke:#000000;stroke-width:1px;stroke-linecap:butt;stroke-linejoin:miter;stroke-opacity:1"
       d="m 347.14286,29.68363 c -20.53572,28.928572 -1.78572,62.142858 18.21428,67.142859 13.54044,3.385111 54.10715,-18.57143 38.39286,-53.035715"
       id="path4196"
       inkscape:connector-curvature="0"
       sodipodi:nodetypes="csc" />
  </g>
  <g
     inkscape:groupmode="layer"
     id="layer4"
     inkscape:label="Logo 2"
     style="display:inline">
    <path
       style="display:inline;fill:#ffffff;fill-opacity:1;fill-rule:evenodd;stroke:#282937;stroke-width:5;stroke-linecap:butt;stroke-linejoin:miter;stroke-miterlimit:4;stroke-dasharray:none;stroke-opacity:1"
       d="m 347.13477,29.695312 c -20.5225,28.925855 -1.77468,62.131526 18.22265,67.13086 11.53791,2.884478 42.69139,-12.633755 41.9336,-38.609375 l -0.50586,4.681641 c -32.67857,7.5 -58.92747,-23.392579 -59.82032,-30.892579 -0.0702,-0.589713 -0.005,-1.386405 0.16993,-2.310547 z"
       id="path4233"
       inkscape:connector-curvature="0" />
    <path
       style="display:inline;fill:#ffffff;fill-opacity:1;fill-rule:evenodd;stroke:#282937;stroke-width:5;stroke-linecap:butt;stroke-linejoin:miter;stroke-miterlimit:4;stroke-dasharray:none;stroke-opacity:1"
       d="m 402.35938,43.443359 1.39062,0.347657 c 15.46628,33.920346 -23.56695,55.705741 -37.71289,53.158203 33.15834,21.792261 66.11554,3.053431 71.82031,-19.765625 3.38108,-13.524334 -5.80154,-29.822243 -35.49804,-33.740235 z"
       id="path4218"
       inkscape:connector-curvature="0" />
    <path
       style="fill:#ffffff;fill-opacity:1;fill-rule:evenodd;stroke:#282937;stroke-width:5;stroke-linecap:butt;stroke-linejoin:miter;stroke-miterlimit:4;stroke-dasharray:none;stroke-opacity:1"
       d="M 410.27344,6.3828125 C 398.00659,5.8923581 379.68073,20.410061 378.44531,42.896484 c 48.04123,-3.151707 63.14663,17.076187 59.5586,33.59961 17.82122,-36.42924 -0.30107,-62.926852 -24.78907,-69.6699221 -0.92875,-0.2557431 -1.91387,-0.4022765 -2.9414,-0.4433594 z"
       id="path4207"
       inkscape:connector-curvature="0" />
    <path
       style="display:inline;fill:#ffffff;fill-opacity:1;fill-rule:evenodd;stroke:#282937;stroke-width:5;stroke-linecap:butt;stroke-linejoin:miter;stroke-miterlimit:4;stroke-dasharray:none;stroke-opacity:1"
       d="M 387.06055,0.81445312 C 357.90143,0.6623918 346.25335,26.029297 346.96484,32.005859 c 0.64218,5.394327 14.40188,22.889727 34.23633,29.498047 C 369.28643,26.864564 397.90007,3.1401606 412.8457,6.7480469 l 0.0117,-0.099609 C 403.0639,2.5496651 394.49326,0.85321386 387.06055,0.81445312 Z"
       id="path4238"
       inkscape:connector-curvature="0" />
    <path
       style="color:#000000;clip-rule:nonzero;display:inline;overflow:visible;visibility:visible;opacity:1;isolation:auto;mix-blend-mode:normal;color-interpolation:sRGB;color-interpolation-filters:linearRGB;solid-color:#000000;solid-opacity:1;fill:#ffffff;fill-opacity:1;fill-rule:evenodd;stroke:none;stroke-width:5;stroke-linecap:butt;stroke-linejoin:miter;stroke-miterlimit:4;stroke-dasharray:none;stroke-dashoffset:0;stroke-opacity:1;color-rendering:auto;image-rendering:auto;shape-rendering:auto;text-rendering:auto;enable-background:accumulate"
       d="M 367.19045,94.485053 C 326.78435,85.39368 310.2626,33.528819 310.2626,33.528819 l 4.74963,-3.354334 c 0,0 5.35098,23.804215 28.25581,39.939098 17.35832,12.227745 23.92241,24.37147 23.92241,24.37147 z"
       id="path4296"
       inkscape:connector-curvature="0"
       sodipodi:nodetypes="cccsc" />
  </g>
  <g
     inkscape:groupmode="layer"
     id="layer7"
     inkscape:label="title 1"
     style="display:inline">
    <text
       xml:space="preserve"
       style="font-style:normal;font-variant:normal;font-weight:500;font-stretch:normal;font-size:27.5px;line-height:125%;font-family:ubuntu;-inkscape-font-specification:'ubuntu Medium';letter-spacing:0px;word-spacing:0px;display:inline;fill:#ffffff;fill-opacity:1;stroke:none;stroke-width:1px;stroke-linecap:butt;stroke-linejoin:miter;stroke-opacity:1"
       x="395.54651"
       y="121.25365"
       id="text4167"
       sodipodi:linespacing="125%"><tspan
         sodipodi:role="line"
         id="tspan4169"
         x="395.54651"
         y="121.25365">yarnball</tspan></text>
  </g>
  <g
     inkscape:groupmode="layer"
     id="layer6"
     inkscape:label="title"
     style="display:none">
    <g
       style="font-style:normal;font-variant:normal;font-weight:bold;font-stretch:normal;font-size:27.5px;line-height:125%;font-family:NanumGothic;-inkscape-font-specification:'NanumGothic Bold';letter-spacing:0px;word-spacing:0px;display:inline;fill:#ffffff;fill-opacity:1;stroke:none;stroke-width:1px;stroke-linecap:butt;stroke-linejoin:miter;stroke-opacity:1"
       id="text4312">
      <path
         d="m 402.72401,126.66554 c -0.47667,1.33833 -1.03583,2.2825 -1.6775,2.8325 -0.64167,0.55 -1.46667,0.825 -2.475,0.825 -0.36667,0 -0.715,-0.0183 -1.045,-0.055 -0.33,-0.0367 -0.605,-0.11 -0.825,-0.22 -0.27793,-0.0646 -0.63971,-0.30725 -0.7211,-0.46272 -0.2775,-0.53004 -0.26961,-1.26265 0.18174,-1.77036 0.15835,-0.17812 0.53019,-0.31525 0.73186,-0.24192 0.275,0.0733 0.53167,0.11917 0.77,0.1375 0.23833,0.0367 0.45833,0.055 0.66,0.055 0.31167,0 0.55917,-0.0458 0.7425,-0.1375 0.18333,-0.0917 0.33,-0.21083 0.44,-0.3575 0.055,-0.11 0.12833,-0.26583 0.22,-0.4675 0.11,-0.20167 0.22,-0.43083 0.33,-0.6875 0.11,-0.23833 0.21083,-0.50417 0.3025,-0.7975 0.11,-0.275 0.20167,-0.55 0.275,-0.825 l -4.7025,-13.3375 c -0.0917,-0.22 0.0875,-0.7431 0.46138,-1.00058 0.64831,-0.44647 1.39831,-0.38066 1.85918,-0.12088 0.46346,0.26123 0.75027,0.83725 0.78694,0.92892 l 3.0525,9.1025 3.1075,-9.1025 c 0.0367,-0.0917 0.32902,-0.61243 0.65366,-0.78482 0.7195,-0.38207 1.5005,-0.45282 2.08875,0.10045 0.27992,0.26327 0.45676,0.65687 0.36509,0.87687 z"
         id="path4317"
         inkscape:connector-curvature="0"
         sodipodi:nodetypes="cssscssccssccccccsscccsscc" />
      <path
         d="m 418.91721,126.06054 q -0.1925,0 -0.2475,-0.055 -0.055,-0.0275 -0.055,-0.1925 l 0,-1.2375 q -0.6875,0.9625 -1.76,1.43 -1.045,0.495 -2.1175,0.495 -1.1275,0 -2.09,-0.3025 -0.935,-0.3025 -1.6225,-0.9075 -0.66,-0.605 -1.045,-1.485 -0.385,-0.9075 -0.385,-2.09 0,-1.4025 0.495,-2.4475 0.495,-1.0725 1.54,-1.76 1.0725,-0.715 2.7225,-1.045 1.65,-0.3575 3.9875,-0.3575 0,-0.5225 -0.11,-1.045 -0.11,-0.5225 -0.385,-0.935 -0.2475,-0.4125 -0.715,-0.66 -0.4675,-0.275 -1.1825,-0.275 -1.2375,0 -2.255,0.33 -0.99,0.33 -1.87,0.88 -0.44,0.275 -0.605,0.2475 -0.1375,-0.0275 -0.1375,-0.3025 l 0,-2.09 q 0,-0.11 -0.0275,-0.22 0,-0.1375 0.055,-0.22 0.0825,-0.11 0.4125,-0.3025 0.935,-0.4675 1.8975,-0.77 0.99,-0.3025 2.475,-0.3025 2.7775,0 4.0975,1.3475 1.3475,1.3475 1.3475,4.235 l 0,6.5175 q 0,0.77 0,1.6225 0.0275,0.825 0.11,1.4575 0.055,0.44 -0.3025,0.44 l -2.2275,0 z m -0.495,-7.3425 q -3.0525,0 -4.3725,0.7425 -1.32,0.7425 -1.32,2.2275 0,1.045 0.605,1.5675 0.605,0.5225 1.6225,0.5225 1.5675,0 2.5025,-1.155 0.9625,-1.155 0.9625,-3.6025 l 0,-0.3025 z"
         id="path4319"
         inkscape:connector-curvature="0" />
      <path
         d="m 432.94006,113.63054 q -0.55,-0.1375 -0.9625,-0.165 -0.4125,-0.055 -0.715,0 -0.825,0.165 -1.3475,0.715 -0.495,0.5225 -0.77,1.2375 -0.2475,0.715 -0.33,1.54 -0.0825,0.825 -0.0825,1.5675 l 0,7.15 q 0,0.385 -0.33,0.385 l -2.2825,0 q -0.3025,0 -0.3025,-0.4125 l 0,-11.0825 q 0,-0.88 -0.0275,-1.76 -0.0275,-0.88 -0.0275,-1.54 0,-0.2475 0.0825,-0.3025 0.0825,-0.0825 0.275,-0.0825 l 2.2825,0 q 0.1925,0 0.22,0.055 0.0275,0.055 0.0275,0.1925 l 0,1.21 q 0.1925,-0.33 0.495,-0.66 0.33,-0.33 0.6875,-0.5775 0.385,-0.275 0.77,-0.4125 0.385,-0.165 0.715,-0.165 0.5225,0 0.935,0.0275 0.44,0 0.9075,0.275 0.1375,0.055 0.165,0.1925 0.0275,0.11 0.0275,0.22 l 0,2.0625 q 0,0.11 -0.0825,0.2475 -0.0825,0.1375 -0.33,0.0825 z"
         id="path4321"
         inkscape:connector-curvature="0" />
      <path
         d="m 445.1303,126.06054 q -0.1375,0 -0.2475,-0.1375 -0.0825,-0.11 -0.0825,-0.2475 l 0,-8.745 q 0,-1.98 -0.6325,-2.86 -0.605,-0.88 -1.925,-0.88 -1.815,0 -2.695,1.0175 -0.8525,0.99 -0.8525,2.8875 l 0,8.6075 q 0,0.3575 -0.33,0.3575 l -2.2825,0 q -0.1375,0 -0.2475,-0.1375 -0.0825,-0.11 -0.0825,-0.2475 l 0,-10.945 q 0,-1.045 -0.0275,-2.0075 0,-0.9625 -0.055,-1.5125 -0.055,-0.3575 0.385,-0.3575 l 2.1725,0 q 0.3025,0 0.2475,0.22 l -0.0275,0.99 q 0.6875,-0.66 1.65,-1.1275 0.9625,-0.4675 2.2275,-0.4675 2.64,0 4.015,1.5675 1.4025,1.54 1.4025,4.4825 l 0,9.185 q 0,0.3575 -0.33,0.3575 l -2.2825,0 z"
         id="path4323"
         inkscape:connector-curvature="0" />
      <path
         d="m 458.94819,126.47304 c -0.73333,0 -1.4575,-0.17417 -2.1725,-0.5225 -0.715,-0.34833 -1.25583,-0.77917 -1.6225,-1.2925 l 0,1.045 c 0,0.29333 -0.1375,0.44 -0.4125,0.44 l -2.09,0 c -0.29333,0 -0.44,-0.14667 -0.44,-0.44 l 0,-21.6425 c 0,-0.23833 0.12405,-0.30952 0.3575,-0.3575 0.75167,-0.15448 1.50333,-0.14304 2.255,0 0.12607,0.024 0.21083,0.0275 0.2475,0.0825 0.055,0.0367 0.0825,0.12833 0.0825,0.275 l 0,7.8375 c 0.495,-0.53167 1.06333,-0.94417 1.705,-1.2375 0.66,-0.29333 1.35667,-0.44 2.09,-0.44 0.97167,0 1.8425,0.1925 2.6125,0.5775 0.78833,0.385 1.44833,0.92583 1.98,1.6225 0.55,0.69667 0.97167,1.54917 1.265,2.5575 0.29333,0.99 0.44,2.09917 0.44,3.3275 0,1.265 -0.14667,2.40167 -0.44,3.41 -0.275,1.00833 -0.6875,1.87 -1.2375,2.585 -0.53167,0.69667 -1.19167,1.22833 -1.98,1.595 -0.77,0.385 -1.65,0.5775 -2.64,0.5775 z m -0.3025,-13.4475 c -1.1,0 -1.96167,0.44 -2.585,1.32 -0.605,0.86167 -0.9075,2.18167 -0.9075,3.96 0,0.86167 0.0917,1.63167 0.275,2.31 0.18333,0.66 0.43083,1.21917 0.7425,1.6775 0.33,0.45833 0.70583,0.80667 1.1275,1.045 0.42167,0.23833 0.87083,0.3575 1.3475,0.3575 1.1,0 1.96167,-0.44917 2.585,-1.3475 0.62333,-0.89833 0.935,-2.24583 0.935,-4.0425 0,-1.66833 -0.3025,-2.96083 -0.9075,-3.8775 -0.605,-0.935 -1.47583,-1.4025 -2.6125,-1.4025 z"
         id="path4325"
         inkscape:connector-curvature="0"
         sodipodi:nodetypes="sscssssssscsccscccscccsscsccsssscs" />
      <path
         d="m 477.19358,126.06054 q -0.1925,0 -0.2475,-0.055 -0.055,-0.0275 -0.055,-0.1925 l 0,-1.2375 q -0.6875,0.9625 -1.76,1.43 -1.045,0.495 -2.1175,0.495 -1.1275,0 -2.09,-0.3025 -0.935,-0.3025 -1.6225,-0.9075 -0.66,-0.605 -1.045,-1.485 -0.385,-0.9075 -0.385,-2.09 0,-1.4025 0.495,-2.4475 0.495,-1.0725 1.54,-1.76 1.0725,-0.715 2.7225,-1.045 1.65,-0.3575 3.9875,-0.3575 0,-0.5225 -0.11,-1.045 -0.11,-0.5225 -0.385,-0.935 -0.2475,-0.4125 -0.715,-0.66 -0.4675,-0.275 -1.1825,-0.275 -1.2375,0 -2.255,0.33 -0.99,0.33 -1.87,0.88 -0.44,0.275 -0.605,0.2475 -0.1375,-0.0275 -0.1375,-0.3025 l 0,-2.09 q 0,-0.11 -0.0275,-0.22 0,-0.1375 0.055,-0.22 0.0825,-0.11 0.4125,-0.3025 0.935,-0.4675 1.8975,-0.77 0.99,-0.3025 2.475,-0.3025 2.7775,0 4.0975,1.3475 1.3475,1.3475 1.3475,4.235 l 0,6.5175 q 0,0.77 0,1.6225 0.0275,0.825 0.11,1.4575 0.055,0.44 -0.3025,0.44 l -2.2275,0 z m -0.495,-7.3425 q -3.0525,0 -4.3725,0.7425 -1.32,0.7425 -1.32,2.2275 0,1.045 0.605,1.5675 0.605,0.5225 1.6225,0.5225 1.5675,0 2.5025,-1.155 0.9625,-1.155 0.9625,-3.6025 l 0,-0.3025 z"
         id="path4327"
         inkscape:connector-curvature="0" />
      <path
         d="m 483.92893,126.11554 c -0.20167,0 -0.3025,-0.11 -0.3025,-0.33 l 0,-21.67 c 0,-0.0917 0.0275,-0.165 0.0825,-0.22 0.0733,-0.0733 0.15886,-0.0866 0.2475,-0.11 1.12593,-0.2966 1.66444,-0.1037 2.31,0 0.0905,0.0145 0.165,0.0367 0.22,0.11 0.0733,0.055 0.11,0.12833 0.11,0.22 l 0,21.67 c 0,0.0917 -0.0367,0.165 -0.11,0.22 -0.055,0.0733 -0.12833,0.11 -0.22,0.11 z"
         id="path4329"
         inkscape:connector-curvature="0"
         sodipodi:nodetypes="sssssscsscss" />
      <path
         d="m 490.58909,126.11554 c -0.20167,0 -0.3025,-0.11 -0.3025,-0.33 l 0,-21.67 c 0,-0.0917 0.0275,-0.165 0.0825,-0.22 0.0733,-0.0733 0.16337,-0.0736 0.2475,-0.11 0.77,-0.3332 1.54,-0.15806 2.31,0 0.0898,0.0184 0.165,0.0367 0.22,0.11 0.0733,0.055 0.11,0.12833 0.11,0.22 l 0,21.67 c 0,0.0917 -0.0367,0.165 -0.11,0.22 -0.055,0.0733 -0.12833,0.11 -0.22,0.11 z"
         id="path4331"
         inkscape:connector-curvature="0"
         sodipodi:nodetypes="sssssscsscss" />
    </g>
  </g>
  <g
     inkscape:groupmode="layer"
     id="layer8"
     inkscape:label="main menu">
    <rect
       style="color:#000000;clip-rule:nonzero;display:inline;overflow:visible;visibility:visible;opacity:1;isolation:auto;mix-blend-mode:normal;color-interpolation:sRGB;color-interpolation-filters:linearRGB;solid-color:#000000;solid-opacity:1;fill:#206bb0;fill-opacity:1;fill-rule:evenodd;stroke:none;stroke-width:1;stroke-linecap:butt;stroke-linejoin:miter;stroke-miterlimit:4;stroke-dasharray:none;stroke-dashoffset:0;stroke-opacity:1;color-rendering:auto;image-rendering:auto;shape-rendering:auto;text-rendering:auto;enable-background:accumulate"
       id="rect4454"
       width="120.00001"
       height="29.285736"
       x="304.28571"
       y="305.21939" />
    <path
       style="display:inline;fill:none;fill-rule:evenodd;stroke:#b4b4b4;stroke-width:1px;stroke-linecap:butt;stroke-linejoin:miter;stroke-opacity:1"
       d="m 442.96558,145.1946 0,47.98225"
       id="path4165"
       inkscape:connector-curvature="0"
       sodipodi:nodetypes="cc" />
    <rect
       y="131.0341"
       x="0"
       height="51.763939"
       width="745.71429"
       id="rect4390"
       style="display:inline;fill:#282937;fill-opacity:1;stroke:none;stroke-width:10;stroke-miterlimit:4;stroke-dasharray:none;stroke-opacity:1" />
    <path
       sodipodi:nodetypes="cc"
       inkscape:connector-curvature="0"
       id="path4163"
       d="m 338.41479,129.53723 0,65.65992"
       style="display:inline;fill:none;fill-rule:evenodd;stroke:#ffffff;stroke-width:2;stroke-linecap:butt;stroke-linejoin:miter;stroke-miterlimit:4;stroke-dasharray:none;stroke-opacity:1" />
    <path
       style="display:inline;fill:none;fill-rule:evenodd;stroke:#ffffff;stroke-width:2;stroke-linecap:butt;stroke-linejoin:miter;stroke-miterlimit:4;stroke-dasharray:none;stroke-opacity:1"
       d="m 442.96558,129.53723 0,65.65992"
       id="path4388"
       inkscape:connector-curvature="0"
       sodipodi:nodetypes="cc" />
    <text
       sodipodi:linespacing="125%"
       id="text4151"
       y="165.92494"
       x="371.46594"
       style="font-style:normal;font-weight:normal;font-size:25px;line-height:125%;font-family:Ubuntu;letter-spacing:0px;word-spacing:0px;display:inline;fill:#5f7198;fill-opacity:1;stroke:none;stroke-width:1px;stroke-linecap:butt;stroke-linejoin:miter;stroke-opacity:1;-inkscape-font-specification:Ubuntu;font-stretch:normal;font-variant:normal;"
       xml:space="preserve"><tspan
         y="165.92494"
         x="371.46594"
         id="tspan4153"
         sodipodi:role="line">Try</tspan></text>
    <text
       xml:space="preserve"
       style="font-style:normal;font-weight:normal;font-size:25px;line-height:125%;font-family:ubuntu;letter-spacing:0px;word-spacing:0px;display:inline;fill:#5f7198;fill-opacity:1;stroke:none;stroke-width:1px;stroke-linecap:butt;stroke-linejoin:miter;stroke-opacity:1;-inkscape-font-specification:ubuntu;font-stretch:normal;font-variant:normal;"
       x="475.84344"
       y="165.92494"
       id="text4155"
       sodipodi:linespacing="125%"><tspan
         sodipodi:role="line"
         id="tspan4157"
         x="475.84344"
         y="165.92494">Docs</tspan></text>
    <rect
       style="color:#000000;clip-rule:nonzero;display:inline;overflow:visible;visibility:visible;opacity:1;isolation:auto;mix-blend-mode:normal;color-interpolation:sRGB;color-interpolation-filters:linearRGB;solid-color:#000000;solid-opacity:1;fill:#535e73;fill-opacity:1;fill-rule:evenodd;stroke:none;stroke-width:2;stroke-linecap:butt;stroke-linejoin:miter;stroke-miterlimit:4;stroke-dasharray:none;stroke-dashoffset:0;stroke-opacity:1;color-rendering:auto;image-rendering:auto;shape-rendering:auto;text-rendering:auto;enable-background:accumulate"
       id="rect4419"
       width="339.41125"
       height="52.022858"
       x="-0.50507784"
       y="131.10309" />
    <text
       xml:space="preserve"
       style="font-style:normal;font-weight:normal;font-size:25px;line-height:125%;font-family:Ubuntu;letter-spacing:0px;word-spacing:0px;display:inline;fill:#ffffff;fill-opacity:1;stroke:none;stroke-width:1px;stroke-linecap:butt;stroke-linejoin:miter;stroke-opacity:1;-inkscape-font-specification:Ubuntu;font-stretch:normal;font-variant:normal;"
       x="242.70741"
       y="165.92494"
       id="text4142"
       sodipodi:linespacing="125%"><tspan
         sodipodi:role="line"
         id="tspan4144"
         x="242.70741"
         y="165.92494">Intro</tspan></text>
    <rect
       style="color:#000000;clip-rule:nonzero;display:inline;overflow:visible;visibility:visible;opacity:1;isolation:auto;mix-blend-mode:normal;color-interpolation:sRGB;color-interpolation-filters:linearRGB;solid-color:#000000;solid-opacity:1;fill:#ffffff;fill-opacity:1;fill-rule:evenodd;stroke:#242430;stroke-width:1;stroke-linecap:butt;stroke-linejoin:miter;stroke-miterlimit:4;stroke-dasharray:none;stroke-dashoffset:0;stroke-opacity:1;color-rendering:auto;image-rendering:auto;shape-rendering:auto;text-rendering:auto;enable-background:accumulate"
       id="rect4440"
       width="60.000008"
       height="57.142872"
       x="120.71429"
       y="294.5051" />
    <rect
       y="294.5051"
       x="260"
       height="57.142872"
       width="60.000008"
       id="rect4446"
       style="color:#000000;clip-rule:nonzero;display:inline;overflow:visible;visibility:visible;opacity:1;isolation:auto;mix-blend-mode:normal;color-interpolation:sRGB;color-interpolation-filters:linearRGB;solid-color:#000000;solid-opacity:1;fill:#ffffff;fill-opacity:1;fill-rule:evenodd;stroke:#242430;stroke-width:1;stroke-linecap:butt;stroke-linejoin:miter;stroke-miterlimit:4;stroke-dasharray:none;stroke-dashoffset:0;stroke-opacity:1;color-rendering:auto;image-rendering:auto;shape-rendering:auto;text-rendering:auto;enable-background:accumulate" />
    <rect
       style="color:#000000;clip-rule:nonzero;display:inline;overflow:visible;visibility:visible;opacity:1;isolation:auto;mix-blend-mode:normal;color-interpolation:sRGB;color-interpolation-filters:linearRGB;solid-color:#000000;solid-opacity:1;fill:#ffffff;fill-opacity:1;fill-rule:evenodd;stroke:#242430;stroke-width:1;stroke-linecap:butt;stroke-linejoin:miter;stroke-miterlimit:4;stroke-dasharray:none;stroke-dashoffset:0;stroke-opacity:1;color-rendering:auto;image-rendering:auto;shape-rendering:auto;text-rendering:auto;enable-background:accumulate"
       id="rect4448"
       width="60.000008"
       height="57.142872"
       x="338.57144"
       y="294.5051" />
    <rect
       y="294.5051"
       x="415.71429"
       height="57.142872"
       width="60.000008"
       id="rect4450"
       style="color:#000000;clip-rule:nonzero;display:inline;overflow:visible;visibility:visible;opacity:1;isolation:auto;mix-blend-mode:normal;color-interpolation:sRGB;color-interpolation-filters:linearRGB;solid-color:#000000;solid-opacity:1;fill:#ffffff;fill-opacity:1;fill-rule:evenodd;stroke:#242430;stroke-width:1;stroke-linecap:butt;stroke-linejoin:miter;stroke-miterlimit:4;stroke-dasharray:none;stroke-dashoffset:0;stroke-opacity:1;color-rendering:auto;image-rendering:auto;shape-rendering:auto;text-rendering:auto;enable-background:accumulate" />
    <rect
       style="color:#000000;clip-rule:nonzero;display:inline;overflow:visible;visibility:visible;opacity:1;isolation:auto;mix-blend-mode:normal;color-interpolation:sRGB;color-interpolation-filters:linearRGB;solid-color:#000000;solid-opacity:1;fill:#ffffff;fill-opacity:1;fill-rule:evenodd;stroke:#242430;stroke-width:1;stroke-linecap:butt;stroke-linejoin:miter;stroke-miterlimit:4;stroke-dasharray:none;stroke-dashoffset:0;stroke-opacity:1;color-rendering:auto;image-rendering:auto;shape-rendering:auto;text-rendering:auto;enable-background:accumulate"
       id="rect4452"
       width="60.000008"
       height="57.142872"
       x="415.71429"
       y="294.5051" />
    <text
       sodipodi:linespacing="125%"
       id="text4492"
       y="831.61548"
       x="347.76328"
       style="font-style:normal;font-variant:normal;font-weight:normal;font-stretch:normal;font-size:25px;line-height:125%;font-family:Ubuntu;-inkscape-font-specification:Ubuntu;letter-spacing:0px;word-spacing:0px;display:inline;fill:#ffffff;fill-opacity:1;stroke:none;stroke-width:1px;stroke-linecap:butt;stroke-linejoin:miter;stroke-opacity:1"
       xml:space="preserve"><tspan
         y="831.61548"
         x="347.76328"
         id="tspan4494"
         sodipodi:role="line">Next</tspan></text>
  </g>
  <g
     inkscape:groupmode="layer"
     id="layer2"
     inkscape:label="Foreground"
     style="display:inline">
    <rect
       style="color:#000000;clip-rule:nonzero;display:inline;overflow:visible;visibility:visible;opacity:1;isolation:auto;mix-blend-mode:normal;color-interpolation:sRGB;color-interpolation-filters:linearRGB;solid-color:#000000;solid-opacity:1;fill:#fffadf;fill-opacity:0.94117647;fill-rule:evenodd;stroke:none;stroke-width:2;stroke-linecap:butt;stroke-linejoin:miter;stroke-miterlimit:4;stroke-dasharray:none;stroke-dashoffset:0;stroke-opacity:1;color-rendering:auto;image-rendering:auto;shape-rendering:auto;text-rendering:auto;enable-background:accumulate"
       id="rect4421"
       width="204.00259"
       height="25.947067"
       x="59.093929"
       y="216.82863" />
    <text
       xml:space="preserve"
       style="font-style:normal;font-weight:normal;font-size:12.5px;line-height:125%;font-family:sans-serif;letter-spacing:0px;word-spacing:0px;display:inline;fill:#303030;fill-opacity:1;stroke:none;stroke-width:1px;stroke-linecap:butt;stroke-linejoin:miter;stroke-opacity:1;"
       x="71.215752"
       y="233.63356"
       id="text4423"
       sodipodi:linespacing="125%"><tspan
         sodipodi:role="line"
         id="tspan4425"
         x="71.215752"
         y="233.63356">Yarnball defines three things:</tspan></text>
    <text
       sodipodi:linespacing="125%"
       id="text4442"
       y="384.34784"
       x="134.78719"
       style="font-style:normal;font-weight:normal;font-size:12.5px;line-height:125%;font-family:sans-serif;letter-spacing:0px;word-spacing:0px;display:inline;fill:#303030;fill-opacity:1;stroke:none;stroke-width:1px;stroke-linecap:butt;stroke-linejoin:miter;stroke-opacity:1"
       xml:space="preserve"><tspan
         y="384.34784"
         x="134.78719"
         id="tspan4444"
         sodipodi:role="line">Node</tspan></text>
  </g>
</svg>
