<?xml version="1.0" encoding="UTF-8" standalone="no"?>
<!-- Created with Inkscape (http://www.inkscape.org/) -->

<svg
   xmlns:dc="http://purl.org/dc/elements/1.1/"
   xmlns:cc="http://creativecommons.org/ns#"
   xmlns:rdf="http://www.w3.org/1999/02/22-rdf-syntax-ns#"
   xmlns:svg="http://www.w3.org/2000/svg"
   xmlns="http://www.w3.org/2000/svg"
   xmlns:sodipodi="http://sodipodi.sourceforge.net/DTD/sodipodi-0.dtd"
   xmlns:inkscape="http://www.inkscape.org/namespaces/inkscape"
   width="325"
   height="275"
   viewBox="0 0 325.00001 275"
   id="svg2"
   version="1.1"
   inkscape:version="0.91 r13725"
   sodipodi:docname="logo.svg">
  <defs
     id="defs4" />
  <sodipodi:namedview
     id="base"
     pagecolor="#ffffff"
     bordercolor="#666666"
     borderopacity="1.0"
     inkscape:pageopacity="0.0"
     inkscape:pageshadow="2"
     inkscape:zoom="1.979899"
     inkscape:cx="270.70506"
     inkscape:cy="146.29698"
     inkscape:document-units="px"
     inkscape:current-layer="layer3"
     showgrid="false"
     inkscape:window-width="1920"
     inkscape:window-height="997"
     inkscape:window-x="1920"
     inkscape:window-y="0"
     inkscape:window-maximized="1"
     units="px" />
  <metadata
     id="metadata7">
    <rdf:RDF>
      <cc:Work
         rdf:about="">
        <dc:format>image/svg+xml</dc:format>
        <dc:type
           rdf:resource="http://purl.org/dc/dcmitype/StillImage" />
        <dc:title />
      </cc:Work>
    </rdf:RDF>
  </metadata>
  <g
     inkscape:groupmode="layer"
     id="layer2"
     inkscape:label="nav background"
     style="display:none"
     transform="translate(0,-777.36212)">
    <rect
       style="fill:#282937;fill-opacity:1;stroke:none;stroke-width:10;stroke-miterlimit:4;stroke-dasharray:none;stroke-opacity:1"
       id="rect4153"
       width="325.20908"
       height="276.42859"
       x="0.17857194"
       y="775.93359" />
  </g>
  <g
     inkscape:label="Layer 1"
     inkscape:groupmode="layer"
     id="layer1"
     transform="translate(0,-777.36212)"
     style="display:inline">
    <path
       style="display:inline;fill:#282937;fill-opacity:1;fill-rule:evenodd;stroke:#ffffff;stroke-width:5;stroke-linecap:butt;stroke-linejoin:miter;stroke-miterlimit:4;stroke-dasharray:none;stroke-opacity:1"
       d="m 121.26272,808.07282 c -20.5225,28.92586 -1.77468,62.13151 18.22265,67.13091 11.53791,2.8844 42.69139,-12.6338 41.9336,-38.60942 l -0.50586,4.68164 c -32.67857,7.49998 -58.92747,-23.39258 -59.82032,-30.89258 -0.0702,-0.58971 -0.005,-1.38641 0.16993,-2.31055 z"
       id="path4233"
       inkscape:connector-curvature="0" />
    <path
       style="display:inline;fill:#282937;fill-opacity:1;fill-rule:evenodd;stroke:#ffffff;stroke-width:5;stroke-linecap:butt;stroke-linejoin:miter;stroke-miterlimit:4;stroke-dasharray:none;stroke-opacity:1"
       d="m 176.48733,821.82087 1.39062,0.34766 c 15.46628,33.9203 -23.56695,55.7057 -37.71289,53.1582 33.15834,21.7923 66.11554,3.0534 71.82031,-19.7656 3.38108,-13.52436 -5.80154,-29.82227 -35.49804,-33.74026 z"
       id="path4218"
       inkscape:connector-curvature="0" />
    <path
       style="display:inline;fill:#282937;fill-opacity:1;fill-rule:evenodd;stroke:#ffffff;stroke-width:5;stroke-linecap:butt;stroke-linejoin:miter;stroke-miterlimit:4;stroke-dasharray:none;stroke-opacity:1"
       d="m 184.40139,784.76033 c -12.26685,-0.49045 -30.59271,14.02724 -31.82813,36.51366 48.04123,-3.1517 63.14663,17.07619 59.5586,33.59964 17.82122,-36.42927 -0.30107,-62.92687 -24.78907,-69.66994 -0.92875,-0.25574 -1.91387,-0.40228 -2.9414,-0.44336 z"
       id="path4207"
       inkscape:connector-curvature="0" />
    <path
       style="display:inline;fill:#282937;fill-opacity:1;fill-rule:evenodd;stroke:#ffffff;stroke-width:5;stroke-linecap:butt;stroke-linejoin:miter;stroke-miterlimit:4;stroke-dasharray:none;stroke-opacity:1"
       d="m 161.1885,779.19197 c -29.15912,-0.15206 -40.8072,25.21484 -40.09571,31.1914 0.64218,5.39433 14.40188,22.88973 34.23633,29.49805 -11.91474,-34.63935 16.6989,-58.36374 31.64453,-54.75585 l 0.0117,-0.0996 c -9.7935,-4.09878 -18.36414,-5.79523 -25.79685,-5.83399 z"
       id="path4238"
       inkscape:connector-curvature="0" />
    <path
       style="color:#000000;clip-rule:nonzero;display:inline;overflow:visible;visibility:visible;opacity:1;isolation:auto;mix-blend-mode:normal;color-interpolation:sRGB;color-interpolation-filters:linearRGB;solid-color:#000000;solid-opacity:1;fill:#282937;fill-opacity:1;fill-rule:evenodd;stroke:none;stroke-width:5;stroke-linecap:butt;stroke-linejoin:miter;stroke-miterlimit:4;stroke-dasharray:none;stroke-dashoffset:0;stroke-opacity:1;color-rendering:auto;image-rendering:auto;shape-rendering:auto;text-rendering:auto;enable-background:accumulate"
       d="M 141.3184,872.86253 C 99.6623,863.77123 85.28341,811.4599 85.28341,811.4599 l 3.856773,-2.90791 c 0,0 3.565266,29.87565 28.255807,39.93914 19.66223,8.01403 23.92241,24.3714 23.92241,24.3714 z"
       id="path4296"
       inkscape:connector-curvature="0"
       sodipodi:nodetypes="cccsc" />
  </g>
  <g
     inkscape:groupmode="layer"
     id="layer4"
     inkscape:label="stem 1"
     style="display:none">
    <path
       transform="translate(0,-777.36212)"
       style="display:inline;fill:none;fill-rule:evenodd;stroke:#ffffff;stroke-width:5;stroke-linecap:butt;stroke-linejoin:miter;stroke-miterlimit:4;stroke-dasharray:none;stroke-opacity:1"
       d="m 118.23601,858.49783 c -20.619693,-17.96634 -29.412913,-30.5759 -30.698583,-49.86104 -1.28568,-19.28514 -24.253078,-16.01657 -21.8565,2.57135 2.196377,17.03516 23.80286,34.24906 61.712473,71.99789 37.68726,37.52742 50.14786,25.70609 64.28381,37.9275 12.37466,10.69867 0.13525,27.12164 -14.14244,21.2136 -13.5451,-5.6049 -27.2941,-25.7728 -61.64111,-60.2124 -26.498973,-26.5704 -26.427333,-25.1418 -48.998603,-47.14149 -8.85495,-8.6307 -14.205518,-9.23891 -18.231435,-5.16059 -3.934662,3.98587 -3.472734,10.88294 2.206395,15.6089 6.232637,5.18658 12.236726,-0.57279 35.248251,18.79359 6.826607,5.74524 14.964432,13.43072 22.645542,21.57805 28.2362,29.95007 30.86697,35.90235 44.73341,47.39652 13.01751,10.79047 0.80857,27.8962 -13.8899,16.85152 C 126.9649,940.5615 136.43498,924.95465 117.0516,905.06747 107.75204,895.52621 95.486907,882.03404 87.519998,875.60205 76.457399,866.6708 70.924596,863.07986 65.380317,860.0334 c -11.118269,-6.10925 -16.982334,8.76757 -10.530933,15.72402 8.660988,9.33902 19.450886,-2.96461 31.313704,7.68353 5.131199,4.6058 16.853212,16.95377 24.490882,25.69278 19.25191,22.02801 2.59699,34.4991 -8.33127,26.7851 -10.928243,-7.7141 -13.031368,-44.96166 -25.284935,-39.5706 -9.313453,4.09753 -0.428578,31.2137 -4.285618,66.5698 -3.85702,35.3561 -30.85623,55.21507 -31.49907,89.92837"
       id="path4138"
       inkscape:connector-curvature="0"
       sodipodi:nodetypes="cssssssssssssssssssssssc" />
  </g>
  <g
     inkscape:groupmode="layer"
     id="layer3"
     inkscape:label="stem 2"
     style="display:inline">
    <path
       transform="translate(0,-777.36212)"
       style="color:#000000;font-style:normal;font-variant:normal;font-weight:normal;font-stretch:normal;font-size:medium;line-height:normal;font-family:sans-serif;text-indent:0;text-align:start;text-decoration:none;text-decoration-line:none;text-decoration-style:solid;text-decoration-color:#000000;letter-spacing:normal;word-spacing:normal;text-transform:none;direction:ltr;block-progression:tb;writing-mode:lr-tb;baseline-shift:baseline;text-anchor:start;white-space:normal;clip-rule:nonzero;display:inline;overflow:visible;visibility:visible;opacity:1;isolation:auto;mix-blend-mode:normal;color-interpolation:sRGB;color-interpolation-filters:linearRGB;solid-color:#000000;solid-opacity:1;fill:#282937;fill-opacity:1;fill-rule:evenodd;stroke:none;stroke-width:5;stroke-linecap:butt;stroke-linejoin:miter;stroke-miterlimit:4;stroke-dasharray:none;stroke-dashoffset:0;stroke-opacity:1;color-rendering:auto;image-rendering:auto;shape-rendering:auto;text-rendering:auto;enable-background:accumulate"
       d="m 77.548828,793.18359 c -0.882777,-0.0754 -1.768392,-0.0572 -2.642578,0.0566 -6.993488,0.91116 -13.035259,7.9702 -11.705078,18.28711 1.217479,9.4428 7.590839,18.34831 18.117187,29.61914 10.526348,11.27084 25.389381,24.99112 44.310551,43.83204 19.03425,18.95352 32.02184,25.67519 41.93359,29.04687 4.95588,1.68584 9.07728,2.54495 12.64648,3.68555 3.56921,1.1406 6.5883,2.50835 9.83399,5.31445 5.40008,4.66871 5.15484,9.73433 2.50976,13.50781 -2.64507,3.77349 -7.91308,6.04851 -14.0625,3.50391 -6.06979,-2.51165 -12.77568,-8.69605 -22.15234,-18.69336 -9.37665,-9.99731 -21.4458,-23.70014 -38.67383,-40.97461 -26.529019,-26.60053 -26.489011,-25.20224 -49.023435,-47.16602 -4.586692,-4.47053 -8.38367,-7.08061 -12.078125,-7.98437 -3.694455,-0.90376 -7.232129,0.37998 -9.677734,2.85742 -5.016325,5.08161 -4.160441,13.83881 2.386718,19.28711 3.600315,2.92616 8.418031,3.36824 12.177735,4.54102 4.845557,1.53101 11.728201,4.70854 23.058593,14.24414 6.735115,5.66824 14.822671,13.30188 22.437498,21.3789 28.17596,29.88617 30.88373,35.94178 44.95703,47.60743 5.71341,4.73595 5.48623,10.00996 3.06055,13.16601 -2.42568,3.15606 -7.26557,4.71201 -13.85351,-0.23828 -2.77796,-2.0874 -4.22857,-4.34347 -5.30079,-7.13867 -1.07221,-2.79521 -1.67748,-6.14689 -2.50781,-9.99219 -1.66065,-7.69061 -4.3971,-17.28597 -14.45898,-27.60937 -9.24421,-9.48448 -21.431273,-22.94841 -29.751956,-29.66602 -11.124759,-8.98143 -16.850124,-12.70675 -22.50586,-15.81445 -3.236157,-1.7782 -6.48081,-2.16053 -9.208984,-1.28711 -2.728174,0.87341 -4.782534,2.88897 -6.052734,5.25976 -2.5404,4.74159 -2.393346,11.23595 1.693359,15.64258 2.527339,2.72519 5.510962,4.03472 8.376953,4.42188 2.865991,0.38715 5.586352,5e-5 8.185547,-0.28516 5.198391,-0.57043 9.619249,-1.04563 14.914063,3.70703 4.886736,4.38637 16.707812,16.81524 24.279292,25.47852 9.23705,10.56901 9.25228,17.9034 6.92579,21.55859 -2.3265,3.65519 -7.47685,4.68498 -11.9336,1.53906 -1.98855,-1.40369 -4.124546,-4.8083 -5.980467,-9.13867 -1.855921,-4.33037 -3.520813,-9.50387 -5.251953,-14.35937 -1.73114,-4.85551 -3.472738,-9.38046 -5.892578,-12.6836 -1.20992,-1.65157 -2.63193,-3.05257 -4.488281,-3.82031 -1.856352,-0.76774 -4.089728,-0.70731 -6.119141,0.18555 -3.392809,1.49269 -4.932976,5.04784 -5.523438,9.08398 -0.590461,4.03614 -0.445409,8.99854 -0.15625,14.88867 0.57832,11.78027 1.81462,27.20946 -0.08398,44.61328 -1.865782,17.10305 -9.347529,30.5474 -16.675781,44.30086 -7.328252,13.7533 -14.504638,27.8578 -14.837891,45.8535 l 1.715051,0.092 c 0.309587,-16.7177 7.902653,-30.8473 15.198971,-44.5408 7.296318,-13.69348 15.243137,-26.40425 17.234375,-44.65731 1.958436,-17.95227 1.310262,-34.13797 0.738768,-45.7792 -0.285747,-5.82061 -0.316805,-11.04101 0.04624,-14.36186 0.609835,-5.5783 2.710817,-6.51816 4.357611,-7.12646 2.553985,-0.9434 5.107715,1.88171 5.886372,2.83442 1.762319,2.40561 3.587564,7.35592 5.279932,12.10268 1.692367,4.74677 3.054653,9.55379 5.049561,14.20845 1.994908,4.65467 3.397043,8.16725 6.872609,10.62061 6.47151,4.56808 13.09284,4.16642 17.01289,-1.99244 3.92006,-6.15885 3.20612,-14.18017 -6.80874,-25.63916 -7.70386,-8.81474 -18.885514,-20.83043 -24.261176,-25.65566 -6.568004,-5.89548 -12.968195,-5.16283 -18.295705,-4.57823 -4.587107,0.7048 -8.985676,0.82361 -13.172311,-3.70283 -2.364696,-2.54982 -3.267136,-7.09851 -0.951172,-11.39609 1.911132,-3.02201 6.478566,-4.22515 9.897406,-2.32998 5.432822,2.98522 11.404345,6.75688 22.404784,15.63795 7.613134,6.14637 19.894454,19.7307 29.249364,29.32875 9.32149,9.56377 11.60471,18.09505 13.21547,25.55459 0.80538,3.72977 1.03421,7.42848 2.34776,10.85283 1.31356,3.42436 3.29532,6.2413 6.83858,8.90377 8.11053,6.09438 15.14486,5.0623 19.24389,-0.27095 4.09904,-5.33326 3.97325,-12.5559 -3.33085,-18.61041 -13.65958,-11.3227 -16.27646,-17.42607 -44.57291,-47.44004 -7.74739,-8.21764 -15.682868,-16.01628 -22.600967,-21.83852 -11.681133,-9.83078 -19.242776,-13.33174 -24.710304,-15.05928 -3.442092,-1.63745 -8.250881,-2.01641 -10.991404,-4.1854 -4.811098,-4.00362 -4.752121,-9.67091 -1.899122,-12.56104 1.580312,-1.60088 3.425076,-2.2415 5.626121,-1.70307 2.201045,0.53844 5.949074,2.67314 10.217333,6.8333 22.608116,22.03561 22.63,20.51378 49.098923,47.05405 17.11898,17.16513 29.09748,30.76552 38.56836,40.86328 9.47087,10.09777 15.8432,17.30441 23.3185,20.39766 8.12828,3.36344 16.11993,0.38175 20.07032,-5.25391 3.95039,-5.63565 3.63864,-14.13019 -3.33594,-20.16015 -3.82229,-3.30461 -7.66141,-5.04202 -11.58203,-6.29492 -3.92062,-1.25291 -7.92142,-2.07687 -12.55859,-3.6543 -9.27436,-3.15486 -21.36067,-9.28548 -40.01368,-27.85938 -18.98844,-18.90791 -33.882149,-32.66906 -44.18554,-43.70117 -10.303391,-11.03211 -15.833602,-19.25139 -16.8125,-26.84375 -1.066397,-8.271 3.178139,-12.14062 7.390625,-12.68945 2.106243,-0.27441 4.240917,0.30942 5.998047,1.92773 1.75713,1.61831 3.205895,4.35211 3.494141,8.67578 1.331185,19.96787 10.759688,33.4644 31.550777,51.58008 l 3.28516,-3.76953 C 99.430614,838.79629 91.271405,827.07312 90.03125,808.4707 c -0.354594,-5.31889 -2.257789,-9.40957 -5.09375,-12.02148 -2.126971,-1.95893 -4.74034,-3.03939 -7.388672,-3.26563 z"
       id="path4343"
       inkscape:connector-curvature="0"
       sodipodi:nodetypes="ccsssssssssssssccssssssssssssssssssssssssssssccssssscssssssccccsssssssssccssssssssssssssssccssc" />
  </g>
</svg>
